<?xml version="1.0" encoding="UTF-8"?>
<svg version="1.1" xmlns="http://www.w3.org/2000/svg" width="1920" height="262">
<path d="M0 0 C2.34797178 -0.00323176 4.69594338 -0.00659708 7.04391479 -0.01008606 C11.94334374 -0.01602437 16.84275521 -0.01793185 21.7421875 -0.01733398 C26.66117074 -0.01725337 31.58005957 -0.02410144 36.49902344 -0.0378418 C67.27329642 -0.12237735 97.92418428 0.33278424 128.65357971 2.0359993 C131.67636544 2.20213735 134.69957181 2.35953072 137.72283268 2.51673889 C146.27350017 2.96276293 154.82073581 3.46004106 163.3671875 3.98046875 C164.38372721 4.04180559 164.38372721 4.04180559 165.42080307 4.10438156 C200.77085446 6.23774119 236.04480282 9.25893447 271.25463867 13.07006836 C287.93508842 14.8445307 304.66629096 16.13712801 321.38270569 17.52137756 C323.0745416 17.66197282 324.76625264 17.80408013 326.45782471 17.94781494 C328.31748453 18.10547102 330.17751855 18.25873715 332.03778076 18.40911865 C333.0196637 18.49179993 334.00154663 18.5744812 335.01318359 18.65966797 C336.35248428 18.76974686 336.35248428 18.76974686 337.71884155 18.88204956 C340.0546875 19.16796875 340.0546875 19.16796875 343.0546875 20.16796875 C343.0546875 70.65796875 343.0546875 121.14796875 343.0546875 173.16796875 C-290.5453125 173.16796875 -924.1453125 173.16796875 -1576.9453125 173.16796875 C-1576.9453125 129.93796875 -1576.9453125 86.70796875 -1576.9453125 42.16796875 C-1553.278125 40.99234375 -1553.278125 40.99234375 -1529.1328125 39.79296875 C-1524.27199951 39.5501416 -1519.41118652 39.30731445 -1514.40307617 39.05712891 C-1484.2581065 37.5622826 -1454.11018896 36.19524787 -1423.9453125 35.16796875 C-1423.06079281 35.13771732 -1422.17627312 35.1074659 -1421.2649498 35.07629776 C-1386.53736746 33.90697538 -1351.79191573 33.98006218 -1317.04906082 33.98285663 C-1311.55189161 33.9825561 -1306.05477186 33.97440132 -1300.55761719 33.9621582 C-1268.58391026 33.89264443 -1236.63749126 33.96398707 -1204.6796875 35.0703125 C-1203.51423401 35.11032694 -1202.34878052 35.15034138 -1201.14801025 35.19156837 C-1179.00622943 35.97419575 -1156.87603056 37.22209185 -1134.7890625 38.97265625 C-1133.01408386 39.11161819 -1133.01408386 39.11161819 -1131.20324707 39.25338745 C-1093.74449573 42.22659089 -1056.37494202 45.89424793 -1019.14778137 51.04299927 C-1012.57147987 51.95185314 -1005.99075509 52.8206743 -999.40625 53.66796875 C-998.44588837 53.79158279 -997.48552673 53.91519684 -996.49606323 54.04255676 C-994.55428271 54.29243581 -992.61250007 54.54229847 -990.67071533 54.79214478 C-975.27258754 56.77881784 -959.8845005 58.8341968 -944.5078125 60.98046875 C-943.65488617 61.09938477 -942.80195984 61.21830078 -941.92318726 61.34082031 C-931.60754571 62.78177039 -921.29751288 64.2586773 -910.99153137 65.7671814 C-878.91498998 70.46183778 -846.84678723 74.80071092 -814.60441589 78.23010254 C-808.67065318 78.86327396 -802.74587538 79.54393672 -796.82421875 80.28125 C-724.93136412 89.11853654 -649.89547257 91.31095145 -577.76348877 84.43612671 C-575.72930095 84.24256761 -573.69469856 84.05334831 -571.65985107 83.86685181 C-552.62529323 82.11727867 -533.72887761 79.77051075 -514.8203125 76.98046875 C-513.47446146 76.78363217 -512.12858504 76.58696907 -510.78268433 76.39047241 C-487.49206938 72.98409217 -464.31993589 69.06514082 -441.20758057 64.60357666 C-438.38259463 64.05961539 -435.55606682 63.52398721 -432.72943115 62.98867798 C-424.46021875 61.42128483 -416.20113983 59.80420462 -407.9453125 58.16796875 C-406.82053497 57.94527313 -406.82053497 57.94527313 -405.67303467 57.71807861 C-378.81060949 52.39766135 -351.95912568 47.01166807 -325.17578125 41.3046875 C-271.58359688 29.89260264 -217.80183421 19.28055055 -163.5078125 11.79296875 C-162.32589325 11.62947937 -161.143974 11.46598999 -159.92623901 11.29754639 C-133.83220241 7.71207142 -107.74905796 4.9653372 -81.46166992 3.28759766 C-77.61657462 3.0419313 -73.772153 2.78726824 -69.92773438 2.53125 C-67.39586748 2.36536344 -64.86396746 2.19998149 -62.33203125 2.03515625 C-61.22615158 1.96223358 -60.12027191 1.88931091 -58.98088074 1.81417847 C-39.31923227 0.56753425 -19.70000531 0.00655149 0 0 Z " fill="#5176EA" transform="translate(1576.9453125,88.83203125)"/>
<path d="M0 0 C5.49717847 -0.00030329 10.99430748 -0.00845677 16.49147141 -0.02069962 C67.39904819 -0.13135351 118.31117195 0.22142145 169.1037761 4.06011093 C171.47467556 4.23079686 173.84560752 4.40103174 176.21656907 4.57085311 C197.54080768 6.12265125 218.83052494 8.05057919 240.1037761 10.18511093 C240.1037761 10.51511093 240.1037761 10.84511093 240.1037761 11.18511093 C231.25506468 11.30915828 222.44458779 11.13736396 213.6037761 10.74761093 C212.67291184 10.70837509 211.74204758 10.66913925 210.78297532 10.62871444 C207.05426395 10.45373168 203.42281574 10.23311458 199.7287761 9.67729843 C193.2821335 8.80199997 186.76242819 8.82334469 180.26393235 8.6675328 C174.49472318 8.48399854 169.64659753 7.88810396 164.1037761 6.18511093 C157.72171145 5.305914 151.27737534 4.97422589 144.8459636 4.68511093 C143.9815767 4.64450546 143.11718979 4.60389999 142.22660935 4.56206405 C140.3963372 4.47677587 138.56600294 4.39281126 136.73561203 4.31011093 C134.06126883 4.1888513 131.38721547 4.06235265 128.7131511 3.93511093 C102.26249043 2.70126913 75.8375815 2.02289841 49.35872233 2.01785386 C47.18174645 2.01712378 45.00477624 2.0149543 42.82780182 2.01235664 C35.10061622 2.00318373 27.37344744 1.99900958 19.64625657 1.99980819 C13.42878195 2.0003351 7.21137119 1.99340556 0.99391282 1.97930038 C-32.80052079 1.90437774 -66.56066082 2.10622578 -100.3415364 3.13432968 C-101.06868268 3.156038 -101.79582896 3.17774632 -102.54500997 3.20011246 C-107.30843805 3.34250119 -112.07136324 3.49591429 -116.83421218 3.65654647 C-118.03520175 3.69454801 -119.23619133 3.73254955 -120.47357452 3.77170265 C-122.10580522 3.83073863 -122.10580522 3.83073863 -123.77101028 3.89096725 C-124.71849199 3.92371089 -125.6659737 3.95645452 -126.64216697 3.99019039 C-128.93024723 4.0485841 -128.93024723 4.0485841 -130.8962239 5.18511093 C-133.56074051 5.47369764 -136.20882073 5.7086821 -138.8805989 5.90386093 C-139.70805618 5.96639053 -140.53551345 6.02892013 -141.38804519 6.09334457 C-144.14033118 6.29728943 -146.89314413 6.49219103 -149.6462239 6.68511093 C-151.05817031 6.78599014 -151.05817031 6.78599014 -152.49864089 6.88890731 C-170.02580221 8.12280352 -187.53572379 8.65364721 -205.10227859 8.8940953 C-206.51096206 8.91486633 -206.51096206 8.91486633 -207.94810379 8.93605697 C-209.69470894 8.96058927 -211.44138137 8.98088769 -213.18809402 8.99593246 C-217.85086699 9.0577518 -222.27375438 9.51824662 -226.8962239 10.18511093 C-229.54055428 10.26361528 -232.15589801 10.30265847 -234.79856765 10.28276718 C-235.5211325 10.28135223 -236.24369735 10.27993728 -236.98815811 10.27847946 C-239.27005755 10.27293318 -241.55185469 10.26039113 -243.8337239 10.24761093 C-245.39166518 10.24258897 -246.94960802 10.23802729 -248.50755203 10.23393905 C-252.30381472 10.22298143 -256.10000203 10.20575465 -259.8962239 10.18511093 C-259.5662239 9.52511093 -259.2362239 8.86511093 -258.8962239 8.18511093 C-157.50008436 3.06294332 -157.50008436 3.06294332 -128.7712239 1.93511093 C-127.91402755 1.90040695 -127.0568312 1.86570297 -126.17365921 1.82994735 C-120.8826956 1.61831141 -115.59135737 1.44046712 -110.29844558 1.28511703 C-107.83620723 1.21274113 -105.37405844 1.13729696 -102.91197097 1.05995834 C-68.61363516 -0.00437749 -34.31097831 -0.00277701 0 0 Z " fill="#C3D1F6" transform="translate(259.89622390270233,122.81488907337189)"/>
<path d="M0 0 C2.34797178 -0.00323176 4.69594338 -0.00659708 7.04391479 -0.01008606 C11.94334374 -0.01602437 16.84275521 -0.01793185 21.7421875 -0.01733398 C26.66117074 -0.01725337 31.58005957 -0.02410144 36.49902344 -0.0378418 C67.27329642 -0.12237735 97.92418428 0.33278424 128.65357971 2.0359993 C131.67636863 2.20213753 134.69957819 2.35953087 137.72284222 2.51673985 C146.27350737 2.96276191 154.82072463 3.4602754 163.3671875 3.98046875 C164.74732424 4.0636254 166.12746137 4.1467755 167.50759888 4.22991943 C202.42992741 6.34485487 237.27090345 9.40826045 272.0546875 13.16796875 C272.0546875 13.49796875 272.0546875 13.82796875 272.0546875 14.16796875 C242.55389832 14.76866355 242.55389832 14.76866355 231.1784668 11.65429688 C228.42994897 11.02490873 225.79418658 10.94824568 222.9765625 10.8515625 C221.81640625 10.80966797 220.65625 10.76777344 219.4609375 10.72460938 C218.254375 10.68529297 217.0478125 10.64597656 215.8046875 10.60546875 C214.58265625 10.56228516 213.360625 10.51910156 212.1015625 10.47460938 C209.0860483 10.3685952 206.07045302 10.26652939 203.0546875 10.16796875 C203.0546875 9.50796875 203.0546875 8.84796875 203.0546875 8.16796875 C201.92933594 8.18537109 201.92933594 8.18537109 200.78125 8.203125 C199.75773437 8.21214844 198.73421875 8.22117187 197.6796875 8.23046875 C196.68195313 8.24207031 195.68421875 8.25367187 194.65625 8.265625 C191.87638974 8.19024918 189.24266103 7.98978017 186.48779297 7.67944336 C181.16198894 7.13420283 175.87386756 6.9670169 170.5234375 6.88671875 C168.5598955 6.8489758 166.59635384 6.81121488 164.6328125 6.7734375 C161.57358868 6.71955007 158.51434192 6.6672887 155.45507812 6.61572266 C152.47777762 6.56414514 149.50062486 6.50690688 146.5234375 6.44921875 C145.60268433 6.43564331 144.68193115 6.42206787 143.73327637 6.40808105 C142.46054871 6.38300476 142.46054871 6.38300476 141.16210938 6.35742188 C140.41505737 6.3448938 139.66800537 6.33236572 138.89831543 6.31945801 C137.0546875 6.16796875 137.0546875 6.16796875 135.0546875 5.16796875 C133.66864237 5.05557264 132.27761236 5.00147221 130.88720703 4.97851562 C129.59413132 4.95343933 129.59413132 4.95343933 128.27493286 4.92785645 C127.33858002 4.91428101 126.40222717 4.90070557 125.4375 4.88671875 C124.46996796 4.86830933 123.50243591 4.8498999 122.50558472 4.83093262 C119.39701539 4.77207938 116.28838771 4.71941182 113.1796875 4.66796875 C110.10670216 4.61623662 107.03378106 4.56299003 103.96090698 4.50500488 C102.0486403 4.46897607 100.13630358 4.43642001 98.22390747 4.40808105 C93.61421778 4.32183997 89.06082096 4.10051923 84.47032166 3.66421509 C78.28302633 3.13710527 72.14999569 3.02663465 65.94311523 3.03857422 C64.79835724 3.0368219 63.65359924 3.03506958 62.47415161 3.03326416 C58.7288456 3.02889986 54.98358766 3.03176422 51.23828125 3.03515625 C48.61377453 3.0344817 45.98926786 3.03351041 43.36476135 3.03225708 C37.88029469 3.03044595 32.39584156 3.03281409 26.91137695 3.03759766 C20.59816861 3.04304095 14.28499257 3.04127285 7.97178501 3.03577125 C1.86143028 3.03066248 -4.24891029 3.03123359 -10.35926628 3.03415298 C-12.9430943 3.03481725 -15.52692315 3.03401142 -18.1107502 3.03167343 C-21.72823355 3.02911772 -25.34565592 3.03302833 -28.96313477 3.03857422 C-30.54464073 3.03553787 -30.54464073 3.03553787 -32.15809631 3.03244019 C-38.01598733 3.04897389 -43.76881561 3.33734434 -49.59631729 3.94268131 C-52.71165879 4.24146749 -55.79747583 4.28088503 -58.92578125 4.265625 C-60.10849609 4.26240234 -61.29121094 4.25917969 -62.50976562 4.25585938 C-63.70537109 4.24748047 -64.90097656 4.23910156 -66.1328125 4.23046875 C-67.9900293 4.22370117 -67.9900293 4.22370117 -69.88476562 4.21679688 C-72.90500035 4.20513574 -75.92512927 4.18877111 -78.9453125 4.16796875 C-78.9453125 3.83796875 -78.9453125 3.50796875 -78.9453125 3.16796875 C-74.95180611 2.89796197 -70.95806348 2.63174057 -66.96411133 2.3684082 C-64.97139668 2.23633973 -62.97885764 2.1016297 -60.98632812 1.96679688 C-40.6590487 0.61473774 -20.37115121 0.00677469 0 0 Z " fill="#98ADEA" transform="translate(1576.9453125,88.83203125)"/>
<path d="M0 0 C0 0.33 0 0.66 0 1 C-24.73643961 2.99535857 -49.38716728 4.36877979 -74.20556641 4.70874023 C-75.61435562 4.72956413 -75.61435562 4.72956413 -77.05160522 4.75080872 C-78.79831147 4.77542833 -80.54508578 4.79578077 -82.29190063 4.81083679 C-86.95466585 4.87262684 -91.3775397 5.33313702 -96 6 C-98.64433037 6.07850435 -101.25967411 6.11754754 -103.90234375 6.09765625 C-104.6249086 6.0962413 -105.34747345 6.09482635 -106.0919342 6.09336853 C-108.37383365 6.08782225 -110.65563079 6.0752802 -112.9375 6.0625 C-114.49544128 6.05747804 -116.05338412 6.05291636 -117.61132812 6.04882812 C-121.40759081 6.0378705 -125.20377813 6.02064372 -129 6 C-128.67 5.34 -128.34 4.68 -128 4 C-115.48033074 3.31086803 -102.95951142 2.6451699 -90.4375 2 C-89.05476332 1.9287365 -89.05476332 1.9287365 -87.64409256 1.85603333 C-58.40390514 0.35637038 -29.28430983 -0.61367942 0 0 Z " fill="#89A0E6" transform="translate(129,127)"/>
<path d="M0 0 C7.96994303 -0.27545102 15.73930219 0.65514992 23.6345253 1.60563278 C26.12992141 1.90560306 28.62607286 2.19839319 31.12252808 2.4894104 C38.21729242 3.31775598 45.31056029 4.15858509 52.40332031 5.00390625 C57.60388186 5.62270782 62.80531737 6.23360589 68.0078125 6.8359375 C68.8551722 6.93404472 69.70253189 7.03215195 70.57556915 7.13323212 C86.68897735 8.98208128 102.80267179 10.18758001 119 11 C119 11.33 119 11.66 119 12 C106.41845545 12.11367235 93.89130664 11.87225917 81.32421875 11.25537109 C78.57848386 11.12275329 75.83234075 11.00458805 73.0859375 10.88671875 C71.3202711 10.80295143 69.5546441 10.7183485 67.7890625 10.6328125 C66.97764801 10.59938751 66.16623352 10.56596252 65.33023071 10.53152466 C61.07845016 10.30810891 57.95235912 9.66268553 54 8 C51.84478366 7.75609092 49.67874637 7.5996842 47.51171875 7.5078125 C46.25504395 7.44456787 44.99836914 7.38132324 43.70361328 7.31616211 C43.04685608 7.28537567 42.39009888 7.25458923 41.71343994 7.22286987 C31.27699073 6.71870194 21.2672045 5.96070022 11.2265625 2.90234375 C7.46485702 1.85034137 3.88161491 1.41014885 0 1 C0 0.67 0 0.34 0 0 Z " fill="#98ABEA" transform="translate(720,163)"/>
<path d="M0 0 C0 0.66 0 1.32 0 2 C-7.92 2.495 -7.92 2.495 -16 3 C-16 3.33 -16 3.66 -16 4 C-16.85549438 4.03758423 -16.85549438 4.03758423 -17.72827148 4.07592773 C-20.29826157 4.19156549 -22.86785527 4.31443624 -25.4375 4.4375 C-26.78424805 4.49647461 -26.78424805 4.49647461 -28.15820312 4.55664062 C-29.01220703 4.59853516 -29.86621094 4.64042969 -30.74609375 4.68359375 C-31.53685303 4.72025146 -32.3276123 4.75690918 -33.14233398 4.79467773 C-35.01401441 4.80563257 -35.01401441 4.80563257 -36 6 C-38.91899525 6.39082782 -41.81986099 6.71794576 -44.75 7 C-45.64017822 7.08830078 -46.53035645 7.17660156 -47.44750977 7.26757812 C-54.82602326 7.96469951 -62.19717109 8.31620906 -69.60107422 8.60327148 C-75.61786752 8.86243025 -81.4420942 9.54762057 -87.37890625 10.58984375 C-90.64885684 11.10153497 -93.70033976 11.15347257 -97 11 C-97 10.67 -97 10.34 -97 10 C-27.97765917 -0.18143748 -27.97765917 -0.18143748 0 0 Z " fill="#8DA2E8" transform="translate(1496,93)"/>
<path d="M0 0 C10.17798069 0.54167384 20.15689683 1.57933588 30.24609375 3.06640625 C31.63705918 3.26725541 33.02809783 3.46759811 34.41920471 3.66746521 C38.02500178 4.18687747 41.62978388 4.71301535 45.234375 5.24072266 C48.9349408 5.78120866 52.63645716 6.31510383 56.33789062 6.84960938 C63.55952192 7.89341247 70.78009042 8.94434629 78 10 C78 10.33 78 10.66 78 11 C71.4 11 64.8 11 58 11 C58 10.34 58 9.68 58 9 C56.95199219 9.01740234 56.95199219 9.01740234 55.8828125 9.03515625 C54.51769531 9.04869141 54.51769531 9.04869141 53.125 9.0625 C51.76761719 9.07990234 51.76761719 9.07990234 50.3828125 9.09765625 C48 9 48 9 46 8 C43.51075769 7.65774081 41.03291019 7.3612399 38.53515625 7.09765625 C37.78721298 7.01503036 37.03926971 6.93240448 36.2686615 6.84727478 C33.07091404 6.49413005 29.87223252 6.14980381 26.67358398 5.80493164 C17.71595955 4.83411358 8.8349376 3.8205695 0 2 C0 1.34 0 0.68 0 0 Z " fill="#94A8E8" transform="translate(640,152)"/>
<path d="M0 0 C14.05369 -0.42191478 27.90656784 0.73260003 41.89697266 1.97143555 C45.70023931 2.30809526 49.50426883 2.63452537 53.30859375 2.95898438 C70.56074497 4.44541742 87.78200993 6.1635059 105 8 C105 8.33 105 8.66 105 9 C75.49921082 9.6006948 75.49921082 9.6006948 64.1237793 6.48632812 C61.37526147 5.85693998 58.73949908 5.78027693 55.921875 5.68359375 C54.76171875 5.64169922 53.6015625 5.59980469 52.40625 5.55664062 C51.1996875 5.51732422 49.993125 5.47800781 48.75 5.4375 C46.91695312 5.37272461 46.91695312 5.37272461 45.046875 5.30664062 C42.0313608 5.20062645 39.01576552 5.09856064 36 5 C36 4.34 36 3.68 36 3 C35.28166992 3.01160156 34.56333984 3.02320312 33.82324219 3.03515625 C26.24223994 3.10365191 18.79676899 2.68945791 11.25 2 C10.15945313 1.90460938 9.06890625 1.80921875 7.9453125 1.7109375 C5.29642926 1.47857932 2.64805804 1.24155018 0 1 C0 0.67 0 0.34 0 0 Z " fill="#AEBFF1" transform="translate(1744,94)"/>
<path d="M0 0 C16.74462666 -0.41099513 33.15553121 0.87540856 49.8125 2.5 C52.36645185 2.74178082 54.92048811 2.9826717 57.47460938 3.22265625 C63.65074744 3.8048788 69.82576369 4.39796127 76 5 C76 5.33 76 5.66 76 6 C67.15128859 6.12404736 58.34081169 5.95225303 49.5 5.5625 C48.56913574 5.52326416 47.63827148 5.48402832 46.67919922 5.44360352 C42.95048786 5.26862075 39.31903965 5.04800365 35.625 4.4921875 C29.17835741 3.61688904 22.65865209 3.63823376 16.16015625 3.48242188 C10.42920029 3.30010455 5.41736874 2.92254322 0 1 C0 0.67 0 0.34 0 0 Z " fill="#92A6E8" transform="translate(424,128)"/>
<path d="M0 0 C14.6753705 0.30669531 29.25328389 1.34527572 43.86727905 2.67053223 C45.83172375 2.84859813 47.79642948 3.02380728 49.76138306 3.19616699 C52.55671339 3.44307611 55.35065916 3.70200179 58.14453125 3.96484375 C58.99358032 4.0388591 59.84262939 4.11287445 60.71740723 4.18913269 C64.51420944 4.56072122 66.77267794 4.84845196 70 7 C52.25864762 6.59085285 34.64417948 6.04656586 17 4 C17 3.67 17 3.34 17 3 C11.39 2.67 5.78 2.34 0 2 C0 1.34 0 0.68 0 0 Z " fill="#9AAFEB" transform="translate(1850,103)"/>
<path d="M0 0 C-3.8038127 3.74093977 -8.25709012 3.97858045 -13.3125 4.6875 C-14.14201172 4.81705078 -14.97152344 4.94660156 -15.82617188 5.08007812 C-20.60401704 5.79279536 -25.17131275 6.13684539 -30 6 C-30 6.66 -30 7.32 -30 8 C-51.53191489 9.19148936 -51.53191489 9.19148936 -62 9 C-62 8.67 -62 8.34 -62 8 C-54.65505265 6.95284876 -47.3095829 5.90944697 -39.96342945 4.87078857 C-36.55209762 4.38834772 -33.14095685 3.90463198 -29.73022461 3.41796875 C-25.80636612 2.85814733 -21.88172569 2.30393184 -17.95703125 1.75 C-16.12553276 1.48751465 -16.12553276 1.48751465 -14.2570343 1.21972656 C-12.54582649 0.97947754 -12.54582649 0.97947754 -10.80004883 0.734375 C-9.79855301 0.59225586 -8.79705719 0.45013672 -7.76521301 0.30371094 C-5.14931901 0.01640012 -2.62884455 -0.05644914 0 0 Z " fill="#98ACEB" transform="translate(1086,163)"/>
<path d="M0 0 C-6.69116911 3.06085395 -12.63904818 4.68676801 -20 5 C-20 5.33 -20 5.66 -20 6 C-21.06541016 6.07347656 -21.06541016 6.07347656 -22.15234375 6.1484375 C-23.07144531 6.22320312 -23.99054688 6.29796875 -24.9375 6.375 C-25.85402344 6.44460937 -26.77054688 6.51421875 -27.71484375 6.5859375 C-28.46894531 6.72257813 -29.22304687 6.85921875 -30 7 C-30.33 7.66 -30.66 8.32 -31 9 C-37.9485042 10.33625081 -44.94870872 10.09674028 -52 10 C-52 9.67 -52 9.34 -52 9 C-46.93256761 7.89489502 -41.86459787 6.79229858 -36.79614258 5.69189453 C-35.07659634 5.31821308 -33.35719169 4.94387941 -31.63793945 4.56884766 C-26.09591722 3.36020658 -20.55087704 2.16733174 -15 1 C-13.84064941 0.75604492 -12.68129883 0.51208984 -11.48681641 0.26074219 C-10.5179248 0.06899414 -9.5490332 -0.12275391 -8.55078125 -0.3203125 C-7.74938721 -0.48031738 -6.94799316 -0.64032227 -6.12231445 -0.80517578 C-3.83303103 -1.01532742 -2.17978294 -0.68926679 0 0 Z " fill="#A3B5EC" transform="translate(1247,133)"/>
<path d="M0 0 C6.463428 -0.11414442 12.65702888 0.29009416 19.06640625 1.09375 C19.98590561 1.20473022 20.90540497 1.31571045 21.85276794 1.43005371 C24.75664721 1.78169637 27.65955696 2.1407189 30.5625 2.5 C32.54486219 2.74137613 34.52728362 2.9822662 36.50976562 3.22265625 C41.34054655 3.80948994 46.17047294 4.40293872 51 5 C51 5.33 51 5.66 51 6 C23.50541835 6.78452494 23.50541835 6.78452494 11.33203125 2.97265625 C7.52116743 1.86022355 3.94426434 1.40951378 0 1 C0 0.67 0 0.34 0 0 Z " fill="#A1B5EE" transform="translate(720,163)"/>
<path d="M0 0 C0.77214844 0.00902344 1.54429688 0.01804687 2.33984375 0.02734375 C2.90832031 0.03894531 3.47679687 0.05054687 4.0625 0.0625 C0.35955436 2.53113042 -2.88030664 2.62705954 -7.1875 3 C-21.73155731 3.96783802 -21.73155731 3.96783802 -34.9375 9.0625 C-37.20581055 9.38134766 -37.20581055 9.38134766 -39.82421875 9.4765625 C-41.2309082 9.53457031 -41.2309082 9.53457031 -42.66601562 9.59375 C-43.64248047 9.6246875 -44.61894531 9.655625 -45.625 9.6875 C-46.61306641 9.72617188 -47.60113281 9.76484375 -48.61914062 9.8046875 C-51.05840707 9.89895867 -53.49766595 9.98456218 -55.9375 10.0625 C-55.9375 9.7325 -55.9375 9.4025 -55.9375 9.0625 C-49.79970934 7.93977529 -43.66159971 6.81881651 -37.52319336 5.69946289 C-35.4368426 5.31875848 -33.35057842 4.93757933 -31.2644043 4.5559082 C-28.25852967 4.00606183 -25.25234355 3.45794716 -22.24609375 2.91015625 C-21.31977646 2.7403273 -20.39345917 2.57049835 -19.43907166 2.39552307 C-5.77665877 -0.08887167 -5.77665877 -0.08887167 0 0 Z " fill="#BECEF4" transform="translate(1394.9375,103.9375)"/>
<path d="M0 0 C0 0.66 0 1.32 0 2 C-7.92 2.495 -7.92 2.495 -16 3 C-16 3.33 -16 3.66 -16 4 C-28.87 4.33 -41.74 4.66 -55 5 C-55 4.67 -55 4.34 -55 4 C-36.67356003 1.91825116 -18.4662977 -0.1197555 0 0 Z " fill="#A0B4EC" transform="translate(1496,93)"/>
<path d="M0 0 C0.66 0.66 1.32 1.32 2 2 C-3.7652446 3.03633542 -9.46137377 4.01371058 -15.3125 4.375 C-19.90836055 4.7269951 -24.15060803 5.78731664 -28.5625 7.0625 C-34.5499217 8.75832394 -39.80225931 9.52498509 -46 9 C-46 8.67 -46 8.34 -46 8 C-40.41474622 6.85321206 -34.82799757 5.71412147 -29.23974609 4.58203125 C-27.34023056 4.19610616 -25.441135 3.80810773 -23.54248047 3.41796875 C-20.80805398 2.85647311 -18.0721872 2.30253335 -15.3359375 1.75 C-14.49195404 1.57500977 -13.64797058 1.40001953 -12.77841187 1.21972656 C-8.48107154 0.35977185 -4.40373594 -0.40610821 0 0 Z " fill="#B4C4F2" transform="translate(1338,114)"/>
<path d="M0 0 C0 0.33 0 0.66 0 1 C-1.65 1.33 -3.3 1.66 -5 2 C-5 3.32 -5 4.64 -5 6 C-7.16874252 5.49396008 -8.99967627 5.00016187 -11 4 C-11.66 4.33 -12.32 4.66 -13 5 C-15.18262139 5.34492954 -17.37137832 5.65149598 -19.5625 5.9375 C-23.72616556 6.50314609 -27.79560442 7.11765363 -31.875 8.125 C-35.99694507 9.1148855 -39.76988143 9.15382249 -44 9 C-44 8.67 -44 8.34 -44 8 C-38.69973413 6.85284215 -33.39781805 5.71376956 -28.09423828 4.58203125 C-26.29168302 4.19620868 -24.48959156 3.80821245 -22.68798828 3.41796875 C-20.09267254 2.85619969 -17.49576855 2.30236634 -14.8984375 1.75 C-13.69808365 1.48751465 -13.69808365 1.48751465 -12.47348022 1.21972656 C-8.23692982 0.32728961 -4.35870604 -0.19507496 0 0 Z " fill="#A6B9ED" transform="translate(1189,144)"/>
<path d="M0 0 C10.82007697 -0.57240672 21.48506277 1.12942574 32.1875 2.5 C34.11255286 2.7415028 36.03768262 2.98239343 37.96289062 3.22265625 C42.64284408 3.80804588 47.32167712 4.40172457 52 5 C52 5.33 52 5.66 52 6 C46.40309244 6.23212981 41.09843349 5.94070331 35.5625 5.0625 C28.75971197 3.99627936 22.0110104 3.59906863 15.13305664 3.34204102 C9.09784905 3.09784905 9.09784905 3.09784905 8 2 C6.65252916 1.76924918 5.29622435 1.58846937 3.9375 1.4375 C2.638125 1.293125 1.33875 1.14875 0 1 C0 0.67 0 0.34 0 0 Z " fill="#C9D8FA" transform="translate(500,134)"/>
<path d="M0 0 C7.03320258 -0.10674338 14.04077855 -0.03304822 21.0625 0.375 C22.29097656 0.44460937 23.51945312 0.51421875 24.78515625 0.5859375 C27.77412975 0.97090857 29.40887442 1.59701573 32 3 C27.7641643 3.02469321 23.52836658 3.04285671 19.29248047 3.05493164 C17.8510668 3.05996474 16.40965824 3.06679173 14.96826172 3.07543945 C12.89809915 3.08754983 10.82800399 3.09323847 8.7578125 3.09765625 C7.5114502 3.10289307 6.26508789 3.10812988 4.98095703 3.11352539 C2 3 2 3 0 2 C0 1.34 0 0.68 0 0 Z " fill="#7F96E1" transform="translate(1712,92)"/>
<path d="M0 0 C0 0.66 0 1.32 0 2 C-6.81408648 5.64474393 -12.24732923 6.1449369 -19.8125 6.0625 C-20.99489258 6.05573242 -20.99489258 6.05573242 -22.20117188 6.04882812 C-24.13414761 6.03711312 -26.06708393 6.01917998 -28 6 C-25.22966451 4.50300831 -22.70631302 3.58019625 -19.62890625 2.9296875 C-18.39624023 2.66865234 -18.39624023 2.66865234 -17.13867188 2.40234375 C-15.8634668 2.14130859 -15.8634668 2.14130859 -14.5625 1.875 C-13.2930957 1.60236328 -13.2930957 1.60236328 -11.99804688 1.32421875 C-7.94740578 0.48046735 -4.16290509 -0.25644179 0 0 Z " fill="#92A8EA" transform="translate(1276,126)"/>
<path d="M0 0 C9.25599658 -0.27675737 17.87995448 0.46859805 27 2 C27 2.33 27 2.66 27 3 C23.62507371 3.05845196 20.25027913 3.09374742 16.875 3.125 C15.44800781 3.15013672 15.44800781 3.15013672 13.9921875 3.17578125 C8.91416745 3.21104528 4.75512475 3.03333617 0 1 C0 0.67 0 0.34 0 0 Z " fill="#869EE5" transform="translate(546,140)"/>
<path d="M0 0 C-0.33 0.99 -0.66 1.98 -1 3 C-8.01805857 4.10087193 -14.90565767 4.09733092 -22 4 C-22 3.67 -22 3.34 -22 3 C-7.40318907 -0.44419134 -7.40318907 -0.44419134 0 0 Z " fill="#849DE5" transform="translate(1217,139)"/>
<path d="M0 0 C-1.68988817 2.07670092 -2.59786013 2.92334628 -5.26831055 3.43237305 C-6.56442261 3.47164917 -6.56442261 3.47164917 -7.88671875 3.51171875 C-8.82451172 3.54716797 -9.76230469 3.58261719 -10.72851562 3.61914062 C-11.70498047 3.64169922 -12.68144531 3.66425781 -13.6875 3.6875 C-15.16959961 3.73874023 -15.16959961 3.73874023 -16.68164062 3.79101562 C-19.12098053 3.87350538 -21.55996063 3.94265068 -24 4 C-24 3.67 -24 3.34 -24 3 C-21.50159546 2.49061655 -19.00176612 1.99236886 -16.5 1.5 C-15.80390625 1.35691406 -15.1078125 1.21382813 -14.390625 1.06640625 C-9.50912797 0.11722627 -4.97281701 -0.13440046 0 0 Z " fill="#94A9E8" transform="translate(1363,110)"/>
<path d="M0 0 C9.102128 0.51856202 18.01282114 1.46232654 27 3 C27 3.33 27 3.66 27 4 C17.51160514 4.38408795 9.15197174 3.55403863 0 1 C0 0.67 0 0.34 0 0 Z " fill="#A6B9EE" transform="translate(612,148)"/>
<path d="M0 0 C0.66 0.66 1.32 1.32 2 2 C0.10507994 2.33848652 -1.79098466 2.67056911 -3.6875 3 C-4.74324219 3.185625 -5.79898437 3.37125 -6.88671875 3.5625 C-9.64904062 3.95068074 -12.21742043 4.08259976 -15 4 C-10.39430437 0.07662965 -5.95023692 -0.39668246 0 0 Z " fill="#8CA1E6" transform="translate(1338,114)"/>
<path d="M0 0 C7.8187104 0.46569122 15.36399015 1.22458462 23 3 C23 3.33 23 3.66 23 4 C14.84524526 4.433422 7.82316305 3.29370226 0 1 C0 0.67 0 0.34 0 0 Z " fill="#6883DD" transform="translate(523,137)"/>
<path d="M0 0 C4.95 0 9.9 0 15 0 C14.01 1.485 14.01 1.485 13 3 C12.13375 2.835 11.2675 2.67 10.375 2.5 C7.18774801 2.02781452 4.21514973 1.92344882 1 2 C0.67 1.34 0.34 0.68 0 0 Z " fill="#5679E1" transform="translate(1290,123)"/>
<path d="M0 0 C0 0.33 0 0.66 0 1 C-1.65 1.33 -3.3 1.66 -5 2 C-5 3.32 -5 4.64 -5 6 C-6.875 5.75 -6.875 5.75 -9 5 C-10.25 2.9375 -10.25 2.9375 -11 1 C-7.26562152 0.12132271 -3.83225427 -0.08912219 0 0 Z " fill="#97B0F3" transform="translate(1189,144)"/>
<path d="M0 0 C0.33 0.66 0.66 1.32 1 2 C-3.97063121 2.91297308 -8.02936879 2.91297308 -13 2 C-13 1.67 -13 1.34 -13 1 C-8.59085217 -0.10228696 -4.51617599 -0.07654536 0 0 Z " fill="#94A7EA" transform="translate(1226,137)"/>
<path d="M0 0 C11.52164009 -0.3690205 11.52164009 -0.3690205 17 2 C17 2.33 17 2.66 17 3 C10.84765625 3.09765625 10.84765625 3.09765625 9 3 C8.67 2.67 8.34 2.34 8 2 C6.65252916 1.76924918 5.29622435 1.58846937 3.9375 1.4375 C2.638125 1.293125 1.33875 1.14875 0 1 C0 0.67 0 0.34 0 0 Z " fill="#A0B6ED" transform="translate(500,134)"/>
<path d="M0 0 C1.98 0 3.96 0 6 0 C2.79663178 2.83374881 0.21912747 3.5205537 -4 4 C-4.33 3.34 -4.66 2.68 -5 2 C-3.35 2 -1.7 2 0 2 C0 1.34 0 0.68 0 0 Z " fill="#8BA0E3" transform="translate(1138,153)"/>
<path d="M0 0 C-3.35327639 2.23551759 -3.90743657 2.17283528 -7.6875 1.625 C-8.49574219 1.51414062 -9.30398438 1.40328125 -10.13671875 1.2890625 C-10.75160156 1.19367188 -11.36648438 1.09828125 -12 1 C-12 0.67 -12 0.34 -12 0 C-3.42857143 -1.28571429 -3.42857143 -1.28571429 0 0 Z " fill="#5A7AD9" transform="translate(1350,114)"/>
<path d="M0 0 C-1.90401138 1.90401138 -3.33425686 2.93520439 -6.046875 3.19921875 C-8.03233273 3.1886578 -10.0169914 3.09915043 -12 3 C-12 2.67 -12 2.34 -12 2 C-7.8803623 0.70756464 -4.33168317 -0.26252625 0 0 Z " fill="#93A8E2" transform="translate(1086,163)"/>
</svg>
